<?xml version="1.0" encoding="UTF-8"?>
<svg id="a" xmlns="http://www.w3.org/2000/svg" viewBox="0 0 512 512">
    <defs>
        <style>.b{fill:#02141e;}.c{fill:#e86476;}</style>
    </defs>
    <rect class="b" width="512" height="512" />
    <g>
        <path class="c" d="M196.96,150.26l-25.25-64.35c-21.48,10.67-40.66,25.25-56.58,42.86l56.65,40.25c7.52-7.29,15.97-13.61,25.18-18.76Z" />
        <path class="c" d="M256,134.85c44.34,0,83.01,23.9,104.12,59.44l64.39-25.67c-31.62-60.86-95.19-102.46-168.51-102.46-15.91,0-31.35,1.98-46.11,5.67l25.47,64.9c6.72-1.16,13.59-1.89,20.65-1.89Z" />
        <path class="c" d="M374.79,232.23c1.53,7.69,2.36,15.63,2.36,23.77,0,66.91-54.24,121.15-121.15,121.15s-121.15-54.24-121.15-121.15c0-19.84,4.86-38.52,13.32-55.05l-56.42-40.08c-16.24,27.98-25.58,60.45-25.58,95.13,0,104.84,84.99,189.83,189.83,189.83s189.83-84.99,189.83-189.83c0-17.12-2.3-33.69-6.55-49.47l-64.49,25.7Z" />
    </g>
</svg>